<svg width="33" height="33" viewBox="0 0 33 33" fill="none" xmlns="http://www.w3.org/2000/svg">
<g clip-path="url(#clip0)">
<path d="M29.6608 9.11732H25.3193L22.813 6.37817H13.2261V10.4869H9.11736V14.5956H5.00867V28.2912C5.00867 29.7977 6.24128 31.0303 7.74782 31.0303H29.6608C31.1674 31.0303 32.4 29.7977 32.4 28.2912V11.8564C32.4 10.3499 31.1674 9.11732 29.6608 9.11732ZM18.7043 26.9216C14.9243 26.9216 11.8564 23.8538 11.8564 20.0738C11.8564 16.2938 14.9243 13.226 18.7043 13.226C22.4843 13.226 25.5521 16.2939 25.5521 20.0739C25.5521 23.8539 22.4843 26.9216 18.7043 26.9216Z" fill="#999999"/>
<path d="M5.00866 13.2261H7.74781V9.11737H11.8565V6.37822H7.74781V2.26953H5.00866V6.37822H0.899963V9.11737H5.00866V13.2261Z" fill="#999999"/>
<path d="M18.7043 15.6913C16.2802 15.6913 14.3217 17.6498 14.3217 20.0739C14.3217 22.498 16.2802 24.4565 18.7043 24.4565C21.1284 24.4565 23.0869 22.498 23.0869 20.0739C23.0869 17.6498 21.1284 15.6913 18.7043 15.6913Z" fill="#999999"/>
</g>
<defs>
<clipPath id="clip0">
<rect width="31.5" height="31.5" fill="white" transform="translate(0.899963 0.900024)"/>
</clipPath>
</defs>
</svg>
