<svg width="20" height="19" viewBox="0 0 20 19" fill="none" xmlns="http://www.w3.org/2000/svg">
<path d="M19.8547 2.725C19.7359 2.5825 19.5597 2.5 19.3747 2.5H4.19992C4.00618 2.5 3.82243 2.59 3.70368 2.74375C3.58618 2.89874 3.54618 3.09874 3.59618 3.28624L5.59615 10.7611C5.6699 11.0361 5.91739 11.2249 6.19989 11.2249C6.20989 11.2249 6.22114 11.2249 6.23114 11.2236L18.1559 10.6236C18.4447 10.6086 18.6872 10.3974 18.7397 10.1124L19.9897 3.23749C20.0234 3.05374 19.9734 2.86624 19.8547 2.725Z" fill="#FFC107"/>
<path d="M8.12485 18.7497C9.16036 18.7497 9.99982 17.9102 9.99982 16.8747C9.99982 15.8392 9.16036 14.9998 8.12485 14.9998C7.08933 14.9998 6.24988 15.8392 6.24988 16.8747C6.24988 17.9102 7.08933 18.7497 8.12485 18.7497Z" fill="#455A64"/>
<path d="M15.6248 18.7497C16.6603 18.7497 17.4998 17.9102 17.4998 16.8747C17.4998 15.8392 16.6603 14.9998 15.6248 14.9998C14.5893 14.9998 13.7498 15.8392 13.7498 16.8747C13.7498 17.9102 14.5893 18.7497 15.6248 18.7497Z" fill="#455A64"/>
<path d="M16.8747 13.7498H6.87489C6.59114 13.7498 6.34365 13.5598 6.27115 13.286L3.05745 1.24998H0.62499C0.279995 1.24998 0 0.969984 0 0.62499C0 0.279996 0.279995 0 0.62499 0H3.53744C3.82119 0 4.06868 0.189997 4.14118 0.463742L7.35488 12.4998H16.8747C17.2197 12.4998 17.4997 12.7798 17.4997 13.1248C17.4997 13.4698 17.2197 13.7498 16.8747 13.7498Z" fill="#455A64"/>
</svg>
