<svg width="29" height="29" viewBox="0 0 29 29" fill="none" xmlns="http://www.w3.org/2000/svg">
<g clip-path="url(#clip0)">
<path d="M26.6168 12.7229C26.1858 12.4052 25.6429 12.0083 25.5771 11.749C25.6047 11.2471 25.7481 10.7584 25.9959 10.3211C26.3757 9.44944 26.7677 8.54619 26.3319 7.79508C25.8961 7.04396 24.9052 6.92225 23.952 6.82119C23.4579 6.81788 22.9712 6.7017 22.5289 6.48155C22.3084 6.03772 22.1926 5.5492 22.1904 5.05361C22.0833 4.10044 21.9725 3.11439 21.2166 2.6737C20.4606 2.233 19.5561 2.61892 18.6845 3.00358C18.2467 3.25128 17.7576 3.39457 17.2554 3.42236C16.9924 3.35177 16.5968 2.81367 16.2815 2.38273C15.7288 1.63772 15.1067 0.792908 14.2083 0.792908C13.3099 0.792908 12.6879 1.63772 12.1388 2.38273C11.8199 2.81487 11.4242 3.35662 11.1649 3.42356C10.6631 3.39331 10.1746 3.2502 9.7358 3.00477C8.85931 2.61886 7.95606 2.2342 7.2074 2.66759C6.45874 3.10098 6.33337 4.09433 6.2262 5.05355C6.22272 5.54743 6.107 6.03406 5.88776 6.47664C5.44633 6.69365 4.96146 6.80766 4.46958 6.81017C3.51521 6.91728 2.5279 7.0281 2.08846 7.78406C1.64902 8.54003 2.035 9.44339 2.41966 10.3162C2.66828 10.755 2.81162 11.2454 2.83844 11.749C2.76785 12.012 2.22975 12.4088 1.79881 12.7229C1.0538 13.2707 0.208984 13.894 0.208984 14.7924C0.208984 15.6908 1.0538 16.3141 1.80007 16.8619C2.23101 17.1796 2.77396 17.5765 2.8397 17.8358C2.81208 18.3377 2.66874 18.8264 2.42091 19.2637C2.0411 20.1354 1.64914 21.0386 2.08493 21.7897C2.52071 22.5408 3.51167 22.6625 4.46485 22.7636C4.9589 22.7669 5.44564 22.8831 5.88794 23.1032C6.10843 23.5471 6.22421 24.0356 6.22638 24.5312C6.33348 25.4844 6.4443 26.4704 7.20027 26.9111C7.95624 27.3518 8.85343 26.9549 9.72627 26.5751C10.1684 26.3301 10.6604 26.1886 11.1652 26.1612C11.4281 26.2318 11.8237 26.7699 12.1391 27.2009C12.6881 27.9459 13.3102 28.7907 14.2086 28.7907C15.107 28.7907 15.729 27.9459 16.2781 27.2009C16.597 26.7687 16.9927 26.227 17.2519 26.16C17.7541 26.1885 18.243 26.3317 18.6811 26.5788C19.5527 26.9586 20.456 27.3482 21.2058 26.916C21.9557 26.4839 22.0799 25.4893 22.187 24.5349C22.1905 24.041 22.3062 23.5544 22.5255 23.1118C22.9677 22.893 23.4539 22.7777 23.9473 22.7746C24.9017 22.6675 25.889 22.5567 26.3284 21.8007C26.7679 21.0448 26.371 20.1476 25.9924 19.2747C25.7446 18.8337 25.6029 18.3411 25.5786 17.8358C25.6491 17.5729 26.1872 17.176 26.6182 16.8619C27.3632 16.3129 28.2093 15.6896 28.2093 14.7925C28.2093 13.8953 27.363 13.2707 26.6168 12.7229Z" fill="#FFC107"/>
<g clip-path="url(#clip1)">
<path d="M20.6828 9.45696L20.308 9.1349C19.6857 8.60017 18.7507 8.65978 18.2013 9.26898L11.9302 16.2224L10.0373 14.592C9.41568 14.0567 8.48048 14.1151 7.93045 14.7237L7.599 15.0904C7.33021 15.3877 7.19065 15.7798 7.21092 16.1803C7.23139 16.5806 7.40997 16.9564 7.70768 17.2251L11.1775 20.4026C11.478 20.6848 11.8806 20.8319 12.2921 20.81C12.7036 20.7883 13.0884 20.5992 13.3572 20.2868L20.8433 11.5885C21.1048 11.2846 21.2348 10.8893 21.2047 10.4896C21.1746 10.0896 20.9869 9.71822 20.6828 9.45696Z" fill="black"/>
</g>
</g>
<defs>
<clipPath id="clip0">
<rect width="28" height="28" fill="white" transform="translate(0.208984 0.791016)"/>
</clipPath>
<clipPath id="clip1">
<rect width="14" height="14" fill="white" transform="translate(7.20898 7.79102)"/>
</clipPath>
</defs>
</svg>
