<svg width="14" height="13" viewBox="0 0 14 13" fill="none" xmlns="http://www.w3.org/2000/svg">
<path d="M13.4739 0.687062L13.099 0.365004C12.4768 -0.169722 11.5417 -0.110118 10.9923 0.499086L4.72124 7.45247L2.82829 5.82214C2.2067 5.28682 1.2715 5.34522 0.72147 5.95377L0.390021 6.32053C0.12123 6.61778 -0.0183323 7.00989 0.00193546 7.41042C0.0224031 7.81073 0.200988 8.18654 0.498696 8.45521L3.96857 11.6327C4.26899 11.9148 4.6716 12.062 5.08312 12.0401C5.49465 12.0183 5.87939 11.8293 6.14821 11.5169L13.6343 2.8186C13.8958 2.5147 14.0259 2.11939 13.9957 1.71969C13.9656 1.3197 13.7779 0.948317 13.4739 0.687062Z" fill="#DC3A61"/>
</svg>
