<svg width="16" height="16" viewBox="0 0 16 16" fill="none" xmlns="http://www.w3.org/2000/svg">
<g clip-path="url(#clip0)">
<path d="M15.0902 6.81763C14.8439 6.63607 14.5336 6.40929 14.4961 6.26112C14.5119 5.9743 14.5938 5.69506 14.7354 5.44515C14.9524 4.94708 15.1764 4.43094 14.9274 4.00173C14.6784 3.57252 14.1121 3.50297 13.5674 3.44522C13.2851 3.44333 13.007 3.37694 12.7542 3.25114C12.6282 2.99752 12.5621 2.71837 12.5608 2.43518C12.4996 1.8905 12.4363 1.32705 12.0043 1.07522C11.5723 0.823398 11.0555 1.04392 10.5574 1.26373C10.3073 1.40528 10.0278 1.48715 9.74079 1.50303C9.59054 1.4627 9.36447 1.15521 9.18428 0.90896C8.86848 0.483239 8.51299 0.000488281 7.99962 0.000488281C7.48625 0.000488281 7.1308 0.483239 6.81705 0.90896C6.63481 1.15589 6.40871 1.46547 6.26054 1.50372C5.97379 1.48643 5.69461 1.40466 5.44389 1.26441C4.94304 1.04389 4.4269 0.824083 3.99909 1.07174C3.57129 1.31939 3.49965 1.88702 3.43841 2.43514C3.43642 2.71736 3.37029 2.99543 3.24502 3.24834C2.99277 3.37234 2.7157 3.43749 2.43463 3.43893C1.88927 3.50013 1.3251 3.56345 1.07399 3.99543C0.822879 4.42742 1.04343 4.94362 1.26324 5.44238C1.40531 5.6931 1.48722 5.97336 1.50255 6.26112C1.46221 6.41137 1.15472 6.63816 0.908473 6.81763C0.482752 7.13066 0 7.48683 0 8.0002C0 8.51356 0.482752 8.86973 0.90919 9.18276C1.15544 9.36432 1.4657 9.5911 1.50326 9.73927C1.48748 10.0261 1.40557 10.3053 1.26396 10.5552C1.04692 11.0533 0.822944 11.5695 1.07197 11.9987C1.32099 12.4279 1.88725 12.4974 2.43192 12.5552C2.71424 12.5571 2.99238 12.6235 3.24512 12.7493C3.37111 13.0029 3.43727 13.282 3.43851 13.5652C3.49971 14.1099 3.56304 14.6733 3.99502 14.9252C4.427 15.177 4.93969 14.9502 5.43845 14.7332C5.69112 14.5932 5.97223 14.5123 6.26067 14.4967C6.41093 14.537 6.637 14.8445 6.81718 15.0907C7.1309 15.5165 7.48638 15.9992 7.99975 15.9992C8.51312 15.9992 8.86858 15.5165 9.18232 15.0907C9.36457 14.8438 9.59067 14.5342 9.73883 14.496C10.0258 14.5122 10.3052 14.5941 10.5555 14.7353C11.0536 14.9523 11.5697 15.1749 11.9982 14.928C12.4267 14.681 12.4976 14.1127 12.5589 13.5673C12.5609 13.2851 12.627 13.007 12.7523 12.7541C13.005 12.6291 13.2828 12.5632 13.5648 12.5615C14.1101 12.5003 14.6743 12.4369 14.9254 12.005C15.1765 11.573 14.9497 11.0603 14.7334 10.5615C14.5918 10.3095 14.5108 10.028 14.4969 9.7393C14.5372 9.58905 14.8447 9.36227 15.091 9.1828C15.5167 8.86908 16.0002 8.51291 16.0002 8.00023C16.0002 7.48754 15.5166 7.13066 15.0902 6.81763Z" fill="#FFC107"/>
<path d="M11.6993 4.95218L11.4851 4.76814C11.1296 4.46259 10.5952 4.49665 10.2813 4.84476L6.69785 8.81813L5.61617 7.88651C5.26097 7.58061 4.72657 7.61399 4.41227 7.96173L4.22287 8.17131C4.06927 8.34117 3.98952 8.56523 4.00111 8.79411C4.0128 9.02285 4.11485 9.2376 4.28497 9.39113L6.26775 11.2068C6.43942 11.3681 6.66949 11.4521 6.90464 11.4397C7.1398 11.4272 7.35965 11.3192 7.51326 11.1407L11.791 6.1702C11.9405 5.99654 12.0148 5.77065 11.9976 5.54225C11.9803 5.31369 11.8731 5.10147 11.6993 4.95218Z" fill="black"/>
</g>
<defs>
<clipPath id="clip0">
<rect width="16" height="16" fill="white"/>
</clipPath>
</defs>
</svg>
