<svg width="14" height="14" viewBox="0 0 14 14" fill="none" xmlns="http://www.w3.org/2000/svg">
<path d="M7.95606 6.79107L12.9291 1.81789C13.2527 1.4944 13.2527 0.971372 12.9291 0.647887C12.6056 0.324402 12.0826 0.324402 11.7591 0.647887L6.7859 5.62107L1.81287 0.647887C1.48924 0.324402 0.966359 0.324402 0.642874 0.647887C0.319237 0.971372 0.319237 1.4944 0.642874 1.81789L5.6159 6.79107L0.642874 11.7643C0.319237 12.0877 0.319237 12.6108 0.642874 12.9343C0.804086 13.0956 1.01606 13.1767 1.22787 13.1767C1.43969 13.1767 1.65151 13.0956 1.81287 12.9343L6.7859 7.96107L11.7591 12.9343C11.9205 13.0956 12.1323 13.1767 12.3441 13.1767C12.5559 13.1767 12.7677 13.0956 12.9291 12.9343C13.2527 12.6108 13.2527 12.0877 12.9291 11.7643L7.95606 6.79107Z" fill="black"/>
</svg>
