<svg width="20" height="16" viewBox="0 0 20 16" fill="none" xmlns="http://www.w3.org/2000/svg">
<path d="M11.8026 10.8064C13.0116 10.2967 13.9659 9.60299 14.6653 8.72489C15.3645 7.84698 15.7142 6.89094 15.7142 5.8567C15.7142 4.82243 15.3645 3.8663 14.665 2.98836C13.9657 2.11041 13.0115 1.41659 11.8024 0.906799C10.5934 0.39709 9.2783 0.142334 7.85707 0.142334C6.43595 0.142334 5.12089 0.397247 3.91172 0.906799C2.70268 1.41655 1.74843 2.11037 1.04913 2.98836C0.349748 3.86646 0 4.82243 0 5.85674C0 6.74208 0.264529 7.57577 0.792767 8.35701C1.32096 9.13809 2.04646 9.79669 2.969 10.3323C2.89465 10.511 2.81839 10.6745 2.74024 10.8235C2.66206 10.9723 2.56914 11.1154 2.46117 11.2532C2.35328 11.391 2.26967 11.4988 2.21009 11.5767C2.15056 11.6548 2.05384 11.7648 1.91984 11.9059C1.78587 12.0473 1.70027 12.1403 1.66313 12.1848C1.66313 12.1773 1.64824 12.1942 1.61845 12.2351C1.58862 12.276 1.57189 12.2945 1.56822 12.2911C1.56446 12.287 1.54957 12.3056 1.52353 12.3466C1.4975 12.3875 1.48444 12.408 1.48444 12.408L1.45649 12.4636C1.44547 12.4861 1.43789 12.508 1.43421 12.5305C1.43046 12.5527 1.42858 12.577 1.42858 12.603C1.42858 12.629 1.43226 12.653 1.43984 12.6755C1.45473 12.7721 1.4975 12.8501 1.56818 12.9099C1.63881 12.9693 1.715 12.999 1.79694 12.999H1.83044C2.20239 12.9469 2.52239 12.8874 2.7902 12.8203C3.93604 12.5229 4.97035 12.0465 5.89294 11.3918C6.56253 11.5108 7.2173 11.5703 7.85715 11.5703C9.27838 11.5708 10.5936 11.3162 11.8026 10.8064Z" fill="#999999"/>
<path d="M19.2075 11.2193C19.736 10.4418 20 9.60694 20 8.71398C20 7.7987 19.7207 6.94253 19.1628 6.14648C18.6047 5.35051 17.8457 4.68819 16.886 4.15991C17.057 4.7179 17.1425 5.28335 17.1425 5.85639C17.1425 6.85333 16.8936 7.79827 16.3947 8.69123C15.8963 9.58391 15.1819 10.3725 14.2519 11.0572C13.3888 11.6822 12.4066 12.1619 11.3054 12.4969C10.2044 12.8316 9.05478 12.9991 7.85683 12.9991C7.6337 12.9991 7.30627 12.9844 6.87479 12.9547C8.37025 13.9366 10.1263 14.4278 12.1425 14.4278C12.7825 14.4278 13.4372 14.3682 14.1069 14.2491C15.0295 14.9041 16.0638 15.3801 17.2096 15.6779C17.4774 15.745 17.7974 15.8044 18.1694 15.8564C18.2586 15.8639 18.3407 15.8378 18.415 15.7783C18.4894 15.7188 18.5378 15.6372 18.56 15.5331C18.5566 15.4884 18.56 15.4639 18.5713 15.4604C18.5822 15.4568 18.5804 15.4325 18.5656 15.388C18.5509 15.3432 18.5434 15.3209 18.5434 15.3209L18.5156 15.2653C18.5079 15.2506 18.4953 15.23 18.4765 15.204C18.4579 15.1782 18.4431 15.1593 18.4319 15.1482C18.4209 15.1371 18.4043 15.1184 18.3818 15.0926C18.3596 15.0667 18.3446 15.0499 18.3371 15.0424C18.3 14.9977 18.2144 14.9048 18.0805 14.7633C17.9465 14.6221 17.85 14.5124 17.7904 14.4343C17.7309 14.3561 17.6471 14.2483 17.5393 14.1105C17.4315 13.973 17.3384 13.8297 17.2602 13.6809C17.1821 13.5321 17.1059 13.3683 17.0315 13.1899C17.9541 12.6537 18.6794 11.9971 19.2075 11.2193Z" fill="#999999"/>
</svg>
