<svg width="24" height="24" viewBox="0 0 24 24" fill="none" xmlns="http://www.w3.org/2000/svg">
<path d="M23.3135 3.28105C22.9604 2.92738 22.3876 2.92677 22.0345 3.27955L11.1833 14.1022L7.26819 9.84998C6.92989 9.48276 6.35793 9.45895 5.9901 9.7972C5.62255 10.1355 5.59902 10.7077 5.93732 11.0753L10.4901 16.0197C10.6568 16.2009 10.8902 16.3062 11.1362 16.3113C11.1428 16.3116 11.1492 16.3116 11.1555 16.3116C11.3946 16.3116 11.6247 16.2166 11.7941 16.0478L23.3117 4.56032C23.6657 4.20758 23.6663 3.63472 23.3135 3.28105Z" fill="#DC3A61"/>
<path d="M23.0955 11.0955C22.5959 11.0955 22.191 11.5004 22.191 12C22.191 17.6195 17.6195 22.191 12 22.191C6.38081 22.191 1.80905 17.6195 1.80905 12C1.80905 6.38081 6.38081 1.80905 12 1.80905C12.4996 1.80905 12.9045 1.40414 12.9045 0.904547C12.9045 0.404906 12.4996 0 12 0C5.38312 0 0 5.38312 0 12C0 18.6166 5.38312 24 12 24C18.6166 24 24 18.6166 24 12C24 11.5004 23.5951 11.0955 23.0955 11.0955Z" fill="#DC3A61"/>
</svg>
