<svg width="20" height="16" viewBox="0 0 20 16" fill="none" xmlns="http://www.w3.org/2000/svg">
<path d="M10.1335 10.9337C11.6063 10.9337 12.8003 9.68002 12.8003 8.13358C12.8003 6.58713 11.6063 5.3335 10.1335 5.3335C8.66074 5.3335 7.4668 6.58713 7.4668 8.13358C7.4668 9.68002 8.66074 10.9337 10.1335 10.9337Z" fill="#2F80ED"/>
<path d="M19.9603 7.46221C19.1762 5.33251 17.8149 3.49073 16.0447 2.16452C14.2745 0.838313 12.1731 0.0858035 10 0C7.82695 0.0858035 5.72547 0.838313 3.9553 2.16452C2.18512 3.49073 0.823847 5.33251 0.0397175 7.46221C-0.0132392 7.61601 -0.0132392 7.78443 0.0397175 7.93823C0.823847 10.0679 2.18512 11.9097 3.9553 13.2359C5.72547 14.5621 7.82695 15.3146 10 15.4004C12.1731 15.3146 14.2745 14.5621 16.0447 13.2359C17.8149 11.9097 19.1762 10.0679 19.9603 7.93823C20.0132 7.78443 20.0132 7.61601 19.9603 7.46221ZM10 12.2503C9.14292 12.2503 8.30509 11.9835 7.59246 11.4835C6.87983 10.9835 6.3244 10.2729 5.99641 9.44148C5.66842 8.61005 5.5826 7.69517 5.74981 6.81253C5.91702 5.92989 6.32974 5.11914 6.93578 4.48279C7.54183 3.84644 8.31398 3.41309 9.15458 3.23752C9.99519 3.06195 10.8665 3.15206 11.6583 3.49645C12.4502 3.84084 13.127 4.42404 13.6031 5.1723C14.0793 5.92057 14.3335 6.80029 14.3335 7.70022C14.3317 8.90642 13.8746 10.0627 13.0623 10.9156C12.25 11.7685 11.1488 12.2485 10 12.2503Z" fill="#2F80ED"/>
</svg>
