<svg width="18" height="13" viewBox="0 0 18 13" fill="none" xmlns="http://www.w3.org/2000/svg">
<path d="M9 0.692308L9 5.30769C9 5.69004 8.62224 6 8.15625 6C7.72909 6 7.37607 5.73955 7.3202 5.40163L7.3125 5.30769V3.69159L0.84375 3.69231C0.37776 3.69231 0 3.38235 0 3C0 2.64951 0.317423 2.35985 0.729259 2.31401L0.84375 2.30769L7.3125 2.30697V0.692308C7.3125 0.341819 7.62992 0.0521622 8.04176 0.00631995L8.15625 0C8.58341 0 8.93643 0.26045 8.9923 0.598366L9 0.692308Z" fill="black"/>
<path d="M9.75 10.125C9.75 10.6945 9.46042 11.1652 9.08471 11.2397L8.98026 11.25L0.769736 11.25C0.344623 11.25 0 10.7463 0 10.125C0 9.55546 0.289579 9.08476 0.665288 9.01027L0.769736 9L8.98026 9C9.40538 9 9.75 9.50368 9.75 10.125Z" fill="black"/>
<path d="M18 3.375C18 3.94454 17.7178 4.41524 17.3518 4.48973L17.25 4.5L11.25 4.5C10.8358 4.5 10.5 3.99632 10.5 3.375C10.5 2.80546 10.7822 2.33476 11.1482 2.26027L11.25 2.25L17.25 2.25C17.6642 2.25 18 2.75368 18 3.375Z" fill="black"/>
<path d="M18 9.75C18 10.1005 17.7178 10.3901 17.3518 10.436L17.25 10.4423L13.5 10.4416V12.0577C13.5 12.4082 13.2178 12.6978 12.8518 12.7437L12.75 12.75C12.3703 12.75 12.0565 12.4896 12.0068 12.1516L12 12.0577V7.44231C12 7.05996 12.3358 6.75 12.75 6.75C13.1297 6.75 13.4435 7.01045 13.4932 7.34837L13.5 7.44231V9.05697L17.25 9.05769C17.6642 9.05769 18 9.36765 18 9.75Z" fill="black"/>
</svg>
