<svg width="32" height="32" viewBox="0 0 32 32" fill="none" xmlns="http://www.w3.org/2000/svg">
<circle cx="16" cy="16" r="13" fill="white"/>
<path d="M16 32C24.832 32 32 24.832 32 16C32 7.168 24.832 0 16 0C7.168 0 0 7.168 0 16C0 24.832 7.168 32 16 32ZM21.7107 14.8573H24.0013V12.568H26.292V14.8587H28.5627V17.1493H26.292V19.44H24.0013V17.1493H21.7107V14.8573ZM16.7947 10.0827L14.6267 12.1867C11.8533 9.476 6.45733 11.4507 6.45733 15.9933C6.45733 22.1547 15.2027 22.576 15.9613 17.5933H11.4387V14.8453H18.9813C19.8373 19.32 16.948 24 11.4387 24V24.0013C7 24.0013 3.43733 20.42 3.43733 16C3.43867 8.88267 11.8813 5.51867 16.7947 10.0827Z" fill="#F44336"/>
</svg>
