<svg width="24" height="24" viewBox="0 0 24 24" fill="none" xmlns="http://www.w3.org/2000/svg">
<path d="M12 2.4V0C10.4241 0 8.86371 0.310389 7.4078 0.913446C5.95189 1.5165 4.62902 2.40042 3.51472 3.51472C1.26428 5.76516 0 8.8174 0 12H2.4C2.4 9.45392 3.41143 7.01212 5.21178 5.21178C7.01212 3.41143 9.45392 2.4 12 2.4Z" fill="#DC3A61"/>
<path d="M21.6 12H24C24 10.4241 23.6896 8.86371 23.0866 7.4078C22.4835 5.95189 21.5996 4.62902 20.4853 3.51472C18.2348 1.26428 15.1826 0 12 0V2.4C14.5461 2.4 16.9879 3.41143 18.7882 5.21178C20.5886 7.01212 21.6 9.45392 21.6 12Z" fill="#C4C4C4"/>
<path d="M12 21.6V24C13.5759 24 15.1363 23.6896 16.5922 23.0866C18.0481 22.4835 19.371 21.5996 20.4853 20.4853C22.7357 18.2348 24 15.1826 24 12H21.6C21.6 14.5461 20.5886 16.9879 18.7882 18.7882C16.9879 20.5886 14.5461 21.6 12 21.6Z" fill="#C4C4C4"/>
<path d="M2.4 12H0C0 13.5759 0.310389 15.1363 0.913446 16.5922C1.5165 18.0481 2.40042 19.371 3.51472 20.4853C5.76516 22.7357 8.8174 24 12 24V21.6C9.45392 21.6 7.01212 20.5886 5.21178 18.7882C3.41143 16.9879 2.4 14.5461 2.4 12Z" fill="#C4C4C4"/>
</svg>
