<svg width="32" height="32" viewBox="0 0 32 32" fill="none" xmlns="http://www.w3.org/2000/svg">
<circle cx="16" cy="16" r="16" fill="url(#paint0_linear)"/>
<path d="M16.0002 6.00965C11.9043 6.00965 8.01472 5.64528 6.52906 9.45812C5.9154 11.0329 6.00451 13.0781 6.00451 16.0065C6.00451 18.5762 5.92217 20.9914 6.52906 22.5538C8.01133 26.3689 11.9325 26.0034 15.998 26.0034C19.9203 26.0034 23.9643 26.4117 25.4681 22.5538C26.0828 20.9632 25.9926 18.9485 25.9926 16.0065C25.9926 12.1012 26.2081 9.57996 24.314 7.68707C22.3963 5.76937 19.8029 6.00965 15.9957 6.00965H16.0002ZM15.1046 7.81116C23.6485 7.79762 24.7359 6.8478 24.1358 20.0427C23.9226 24.7095 20.3692 24.1973 16.0014 24.1973C8.03728 24.1973 7.80828 23.9695 7.80828 16.002C7.80828 7.94201 8.43999 7.81567 15.1046 7.8089V7.81116ZM21.336 9.47053C20.6738 9.47053 20.1368 10.0075 20.1368 10.6697C20.1368 11.3318 20.6738 11.8688 21.336 11.8688C21.9981 11.8688 22.5351 11.3318 22.5351 10.6697C22.5351 10.0075 21.9981 9.47053 21.336 9.47053ZM16.0002 10.8727C13.1654 10.8727 10.8676 13.1717 10.8676 16.0065C10.8676 18.8413 13.1654 21.1392 16.0002 21.1392C18.8351 21.1392 21.1318 18.8413 21.1318 16.0065C21.1318 13.1717 18.8351 10.8727 16.0002 10.8727ZM16.0002 12.6742C20.4053 12.6742 20.411 19.3388 16.0002 19.3388C11.5963 19.3388 11.5895 12.6742 16.0002 12.6742Z" fill="white"/>
<defs>
<linearGradient id="paint0_linear" x1="5" y1="27" x2="27.5" y2="5" gradientUnits="userSpaceOnUse">
<stop stop-color="#FFCF53"/>
<stop offset="0.526042" stop-color="#F54F53"/>
<stop offset="1" stop-color="#CA38A7"/>
</linearGradient>
</defs>
</svg>
