<svg width="48" height="48" viewBox="0 0 48 48" fill="none" xmlns="http://www.w3.org/2000/svg">
<rect width="48" height="48" rx="10" fill="#DC3A61"/>
<path d="M23.984 36.384C21.3387 36.384 19.2053 35.616 17.584 34.08C15.9627 32.544 15.1093 30.752 15.024 28.704H20.112C20.2827 29.6427 20.7093 30.3787 21.392 30.912C22.096 31.424 22.96 31.68 23.984 31.68C24.8587 31.68 25.5627 31.4987 26.096 31.136C26.6507 30.7733 26.928 30.2827 26.928 29.664C26.928 28.576 25.936 27.7547 23.952 27.2L21.744 26.624C19.8453 26.112 18.352 25.28 17.264 24.128C16.176 22.976 15.6213 21.536 15.6 19.808C15.6 17.696 16.304 16.0213 17.712 14.784C19.1413 13.5253 21.04 12.896 23.408 12.896C25.7973 12.896 27.7387 13.6213 29.232 15.072C30.7253 16.5013 31.5147 18.144 31.6 20H26.544C26.3093 19.168 25.904 18.56 25.328 18.176C24.752 17.792 24.112 17.6 23.408 17.6C22.6187 17.6 21.9787 17.76 21.488 18.08C20.9973 18.4 20.7413 18.8587 20.72 19.456C20.6987 20.0533 20.912 20.544 21.36 20.928C21.8293 21.312 22.5333 21.632 23.472 21.888L26.064 22.56C27.9627 23.072 29.4347 23.9147 30.48 25.088C31.5467 26.2613 32.08 27.7333 32.08 29.504C32.08 31.4667 31.3333 33.1093 29.84 34.432C28.3467 35.7333 26.3947 36.384 23.984 36.384Z" fill="white"/>
</svg>
