<svg width="32" height="25" viewBox="0 0 32 25" fill="none" xmlns="http://www.w3.org/2000/svg">
<path d="M30.4042 23.6632H9.00591C8.12398 23.6632 7.40918 22.9484 7.40918 22.0665C7.40918 21.1845 8.12398 20.4697 9.00591 20.4697H30.4036C31.2856 20.4697 32.0004 21.1845 32.0004 22.0665C32.0004 22.9484 31.2861 23.6632 30.4042 23.6632Z" fill="black"/>
<path d="M30.4042 13.6402H9.00591C8.12398 13.6402 7.40918 12.9254 7.40918 12.0435C7.40918 11.1616 8.12398 10.4468 9.00591 10.4468H30.4036C31.2856 10.4468 32.0004 11.1616 32.0004 12.0435C32.0009 12.9254 31.2861 13.6402 30.4042 13.6402Z" fill="black"/>
<path d="M30.4042 3.61777H9.00591C8.12398 3.61777 7.40918 2.90297 7.40918 2.02104C7.40918 1.13912 8.12398 0.424316 9.00591 0.424316H30.4036C31.2856 0.424316 32.0004 1.13912 32.0004 2.02104C32.0004 2.90297 31.2861 3.61777 30.4042 3.61777Z" fill="black"/>
<path d="M2.1444 4.28881C3.32873 4.28881 4.28881 3.32873 4.28881 2.1444C4.28881 0.960082 3.32873 0 2.1444 0C0.960082 0 0 0.960082 0 2.1444C0 3.32873 0.960082 4.28881 2.1444 4.28881Z" fill="black"/>
<path d="M2.1444 14.1882C3.32873 14.1882 4.28881 13.2281 4.28881 12.0438C4.28881 10.8595 3.32873 9.89941 2.1444 9.89941C0.960082 9.89941 0 10.8595 0 12.0438C0 13.2281 0.960082 14.1882 2.1444 14.1882Z" fill="black"/>
<path d="M2.1444 24.0871C3.32873 24.0871 4.28881 23.1271 4.28881 21.9427C4.28881 20.7584 3.32873 19.7983 2.1444 19.7983C0.960082 19.7983 0 20.7584 0 21.9427C0 23.1271 0.960082 24.0871 2.1444 24.0871Z" fill="black"/>
</svg>
