<svg width="24" height="24" viewBox="0 0 24 24" fill="none" xmlns="http://www.w3.org/2000/svg">
<path d="M12.0001 13.8684C13.0268 13.8684 13.8591 13.0361 13.8591 12.0094C13.8591 10.9827 13.0268 10.1504 12.0001 10.1504C10.9734 10.1504 10.1411 10.9827 10.1411 12.0094C10.1411 13.0361 10.9734 13.8684 12.0001 13.8684Z" fill="black"/>
<path d="M17.5773 13.8684C18.604 13.8684 19.4363 13.0361 19.4363 12.0094C19.4363 10.9827 18.604 10.1504 17.5773 10.1504C16.5506 10.1504 15.7183 10.9827 15.7183 12.0094C15.7183 13.0361 16.5506 13.8684 17.5773 13.8684Z" fill="black"/>
<path d="M6.42298 13.8684C7.44969 13.8684 8.282 13.0361 8.282 12.0094C8.282 10.9827 7.44969 10.1504 6.42298 10.1504C5.39627 10.1504 4.56396 10.9827 4.56396 12.0094C4.56396 13.0361 5.39627 13.8684 6.42298 13.8684Z" fill="black"/>
<path d="M12 0C5.3828 0 0 5.3828 0 12C0 18.6172 5.3828 24 12 24C18.6172 24 24 18.6163 24 12C24 5.38373 18.6172 0 12 0ZM12 22.141C6.40898 22.141 1.85902 17.592 1.85902 12C1.85902 6.40805 6.40898 1.85902 12 1.85902C17.592 1.85902 22.141 6.40805 22.141 12C22.141 17.592 17.591 22.141 12 22.141Z" fill="black"/>
</svg>
