<svg width="20" height="24" viewBox="0 0 20 24" fill="none" xmlns="http://www.w3.org/2000/svg">
<path d="M9.5124 4.97131L6.03813 6.66359C5.72596 6.82024 5.47797 7.08132 5.33692 7.40143L1.00265 18.2669C0.554619 19.2816 1.01159 20.4678 2.02345 20.9161L6.33455 22.8264H9.53618L9.5124 4.97131Z" fill="#FA9115"/>
<path d="M19.1695 19.7661V21.8593C19.1695 23.0246 18.1945 24 17.0288 24H8.22796C7.06216 24 6.1348 23.0246 6.1348 21.8593V9.53816C6.1348 9.17062 6.23898 8.82215 6.47298 8.53867L9.11907 5.33261C9.41978 4.96821 9.84854 4.7334 10.3211 4.7334H14.9356C15.4082 4.7334 15.8369 4.96821 16.1377 5.33261L18.7838 8.53867C19.0177 8.82215 19.1695 9.17066 19.1695 9.53816V18.1011V19.7661H19.1695Z" fill="#FFAF14"/>
<path d="M13.4038 7.635C13.2489 7.635 13.1064 7.53343 13.0612 7.37725C13.0065 7.18796 13.1155 6.99011 13.3048 6.93536C13.3453 6.92365 13.386 6.91081 13.4259 6.8972C14.5139 6.52581 15.2448 5.5033 15.2448 4.35282V0.356789C15.2448 0.159746 15.4046 0 15.6016 0C15.7986 0 15.9584 0.159746 15.9584 0.356789V4.35282C15.9584 5.80862 15.0333 7.10248 13.6564 7.57249C13.6059 7.58971 13.5543 7.60598 13.5031 7.62082C13.47 7.63043 13.4366 7.635 13.4038 7.635Z" fill="#E0A446"/>
<path d="M12.6521 8.51542C12.0357 8.51542 11.5342 8.01392 11.5342 7.39748C11.5342 6.78104 12.0357 6.27954 12.6521 6.27954C13.2686 6.27954 13.7701 6.78104 13.7701 7.39748C13.7701 8.01392 13.2686 8.51542 12.6521 8.51542Z" fill="#F5F5F5"/>
</svg>
