<svg width="100" height="100" viewBox="0 0 100 100" fill="none" xmlns="http://www.w3.org/2000/svg">
<circle cx="50" cy="50" r="50" fill="#EF5261"/>
<path d="M82.0959 41.6341V78.9188H17.9171L41.2674 58.5378L17.9038 41.6341L49.9999 14.9678L82.0959 41.6341Z" fill="#EAB54E"/>
<path d="M23.7847 21.2664H75.8805V61.7074H23.7847V21.2664Z" fill="#EEEFEE"/>
<path d="M58.7324 58.5377L82.0827 78.9187H82.096V41.634L58.7324 58.5377Z" fill="#F6C863"/>
<path d="M41.2674 58.5377L17.9171 78.9187H17.9038V41.634L41.2674 58.5377Z" fill="#F6C863"/>
<path d="M82.0825 78.9188H17.917L41.2673 58.5378H58.7322L82.0825 78.9188Z" fill="#EAB54E"/>
<path d="M50.002 51.7531L58.4496 40.6635L54.0696 40.6596V29.4839H45.7818L45.7857 40.6635L41.5498 40.6596L50.002 51.7531Z" fill="#2CBFAE"/>
</svg>
