<svg width="24" height="24" viewBox="0 0 24 24" fill="none" xmlns="http://www.w3.org/2000/svg">
<path fill-rule="evenodd" clip-rule="evenodd" d="M17.1066 15.9194L22.8187 21.8602C23.3019 22.3628 23.2859 23.1641 22.7837 23.6474C22.5473 23.8749 22.236 24 21.9078 24C21.5611 24 21.2375 23.8622 20.9969 23.6124L15.2415 17.6265C13.6073 18.775 11.6958 19.38 9.68999 19.38C4.34701 19.38 0 15.033 0 9.68999C0 4.34701 4.34701 0 9.68999 0C15.033 0 19.38 4.34701 19.38 9.68999C19.38 11.9768 18.5753 14.1735 17.1066 15.9194ZM16.8532 9.6899C16.8532 5.7406 13.6404 2.52773 9.69107 2.52773C5.74177 2.52773 2.52891 5.7406 2.52891 9.6899C2.52891 13.6392 5.74177 16.8521 9.69107 16.8521C13.6404 16.8521 16.8532 13.6392 16.8532 9.6899Z" fill="black"/>
</svg>
