<svg width="16" height="18" viewBox="0 0 16 18" fill="none" xmlns="http://www.w3.org/2000/svg">
<path d="M12.5714 11.25C11.764 11.25 11.0219 11.5249 10.4361 11.9846L6.77586 9.73269C6.88425 9.25005 6.88425 8.74992 6.77586 8.26727L10.4361 6.01538C11.0219 6.47511 11.764 6.75 12.5714 6.75C14.465 6.75 16 5.23895 16 3.375C16 1.51105 14.465 0 12.5714 0C10.6779 0 9.14286 1.51105 9.14286 3.375C9.14286 3.62665 9.17107 3.87176 9.22414 4.10769L5.56393 6.35959C4.97811 5.89989 4.236 5.625 3.42857 5.625C1.53504 5.625 0 7.13605 0 9C0 10.8639 1.53504 12.375 3.42857 12.375C4.236 12.375 4.97811 12.1001 5.56393 11.6404L9.22414 13.8923C9.17004 14.1329 9.14279 14.3786 9.14286 14.625C9.14286 16.4889 10.6779 18 12.5714 18C14.465 18 16 16.4889 16 14.625C16 12.7611 14.465 11.25 12.5714 11.25Z" fill="#999999"/>
</svg>
