<svg width="20" height="20" viewBox="0 0 20 20" fill="none" xmlns="http://www.w3.org/2000/svg">
<path d="M14.9849 2.99264C13.3158 1.45682 11.1139 0.616824 8.84581 0.639793C8.01436 0.64823 7.19718 0.769988 6.40827 1.00245L5.93218 0.199246C5.77261 -0.0699726 5.38147 -0.0654805 5.22812 0.207332L3.53468 3.21999C3.38136 3.49276 3.58077 3.82921 3.89366 3.82565L7.34944 3.78636C7.66237 3.7828 7.85409 3.44182 7.69452 3.17261L7.27011 2.45651C7.78378 2.33675 8.31046 2.27264 8.84476 2.26593C12.8336 2.21581 16.151 5.40354 16.2531 9.39143C16.3587 13.513 13.0366 16.8995 8.93851 16.8995C5.03198 16.8995 1.83069 13.8223 1.63128 9.96448C1.62022 9.75046 1.44405 9.58241 1.22976 9.58241H0.407451C0.178115 9.58241 -0.00543943 9.77386 0.00506838 10.003C0.106748 12.2148 1.00948 14.2809 2.57409 15.8653C4.20577 17.5176 6.42503 18.4752 8.74671 18.5235C11.2119 18.5748 13.5373 17.6367 15.2727 15.8958C16.945 14.2182 17.8817 11.9512 17.8816 9.58237C17.8816 7.06589 16.8492 4.70807 14.9849 2.99264Z" fill="#9D66D5"/>
<path d="M15.8135 3.86194C16.5325 5.18624 16.9409 6.70366 16.9409 8.31651C16.9409 13.4801 12.7549 17.6661 7.59125 17.6661C6.18793 17.6661 4.85715 17.3564 3.66266 16.8024C5.13227 17.8757 6.90719 18.4853 8.74668 18.5236C11.2118 18.5749 13.5373 17.6367 15.2727 15.8958C16.945 14.2182 17.8816 11.9512 17.8816 9.58248C17.8816 7.4678 17.1524 5.46541 15.8135 3.86194Z" fill="#8659B9"/>
<path d="M19.1361 17.9852L17.9806 19.1408C17.8234 19.2979 17.5686 19.2979 17.4115 19.1408L16.6613 18.3905L18.3859 16.6659L19.1361 17.4161C19.2933 17.5733 19.2933 17.8281 19.1361 17.9852Z" fill="#2B4D66"/>
<path d="M19.9954 19.1319V19.5976C19.9954 19.8198 19.8153 20 19.593 20H19.1273C19.0206 20 18.9182 19.9576 18.8428 19.8821L18.041 19.0803L19.0758 18.0455L19.8776 18.8473C19.953 18.9228 19.9954 19.0251 19.9954 19.1319Z" fill="#4A80AA"/>
<path d="M14.1893 19.0719C16.8833 19.0719 19.0673 16.8879 19.0673 14.1938C19.0673 11.4998 16.8833 9.3158 14.1893 9.3158C11.4952 9.3158 9.31122 11.4998 9.31122 14.1938C9.31122 16.8879 11.4952 19.0719 14.1893 19.0719Z" fill="#9DC6FB"/>
<path d="M17.1392 10.309C17.7623 11.1282 18.1323 12.1503 18.1323 13.2589C18.1323 15.953 15.9483 18.137 13.2543 18.137C12.1456 18.137 11.1235 17.7669 10.3043 17.1438C11.1953 18.3154 12.6038 19.0719 14.1892 19.0719C16.8833 19.0719 19.0673 16.8879 19.0673 14.1939C19.0673 12.6085 18.3107 11.1999 17.1392 10.309Z" fill="#80B4FB"/>
<path d="M14.1892 17.7712C16.1649 17.7712 17.7665 16.1696 17.7665 14.1939C17.7665 12.2183 16.1649 10.6167 14.1892 10.6167C12.2136 10.6167 10.612 12.2183 10.612 14.1939C10.612 16.1696 12.2136 17.7712 14.1892 17.7712Z" fill="#E4F6FF"/>
<path d="M16.3495 11.3425C16.8049 11.9428 17.0754 12.6912 17.0754 13.5028C17.0754 15.4784 15.4738 17.08 13.4982 17.08C12.6866 17.08 11.9382 16.8095 11.338 16.3541C11.9912 17.215 13.0252 17.771 14.1892 17.771C16.1649 17.771 17.7665 16.1694 17.7665 14.1938C17.7665 13.0298 17.2104 11.9958 16.3495 11.3425Z" fill="#D3EFFB"/>
<path d="M8.93852 9.07124C8.77184 9.07124 8.63672 8.93612 8.63672 8.76944V3.8914C8.63672 3.72468 8.77184 3.5896 8.93852 3.5896C9.1052 3.5896 9.24031 3.72472 9.24031 3.8914V8.76944C9.24035 8.93616 9.1052 9.07124 8.93852 9.07124Z" fill="#DD636E"/>
<path d="M8.12548 9.88423H4.87345C4.70677 9.88423 4.57166 9.74912 4.57166 9.58244C4.57166 9.41576 4.70677 9.28064 4.87345 9.28064H8.12548C8.29216 9.28064 8.42728 9.41576 8.42728 9.58244C8.42728 9.74912 8.29216 9.88423 8.12548 9.88423Z" fill="#DD636E"/>
<path d="M8.9385 10.5481C9.47188 10.5481 9.90428 10.1157 9.90428 9.58236C9.90428 9.04897 9.47188 8.61658 8.9385 8.61658C8.40511 8.61658 7.97272 9.04897 7.97272 9.58236C7.97272 10.1157 8.40511 10.5481 8.9385 10.5481Z" fill="#F6E781"/>
</svg>
